<?xml version="1.0" encoding="UTF-8"?>
<svg version="1.1" xmlns="http://www.w3.org/2000/svg" width="50" height="50">
<path d="M0 0 C0.93065133 2.60582371 1.14917407 3.64198224 0.0625 6.25 C-0.4634375 7.11625 -0.4634375 7.11625 -1 8 C-0.525625 8.53625 -0.05125 9.0725 0.4375 9.625 C2.28186076 12.42842836 2.62456847 14.69620258 3 18 C2.44570313 18.26554687 1.89140625 18.53109375 1.3203125 18.8046875 C0.59585938 19.15789063 -0.12859375 19.51109375 -0.875 19.875 C-1.59429687 20.22304688 -2.31359375 20.57109375 -3.0546875 20.9296875 C-5.15135019 21.96557543 -5.15135019 21.96557543 -7 24 C-7.64767793 26.57061311 -7.64767793 26.57061311 -8 29 C-10.54173977 29.02716824 -13.08318415 29.04691969 -15.625 29.0625 C-16.69427734 29.07506836 -16.69427734 29.07506836 -17.78515625 29.08789062 C-21.97344438 29.10710296 -25.8728462 28.8267327 -30 28 C-29.67 28.99 -29.34 29.98 -29 31 C-26.03 30.67 -23.06 30.34 -20 30 C-21 34 -21 34 -23 36 C-30.01081917 36.55641422 -30.01081917 36.55641422 -33 34.875 C-34.40532436 32.24001682 -34.06267706 29.94582175 -34 27 C-34.66 26.34 -35.32 25.68 -36 25 C-35.44444444 20.44444444 -35.44444444 20.44444444 -34 19 C-35.98 18.67 -37.96 18.34 -40 18 C-40 17.34 -40 16.68 -40 16 C-33.07202417 15.15817699 -27.61186947 14.7060861 -21 17 C-18.20755955 17.16928543 -18.20755955 17.16928543 -16 17 C-16.33 19.97 -16.66 22.94 -17 26 C-14.05181069 25.51973152 -14.05181069 25.51973152 -11 24 C-7.82640417 18.74715172 -7.04267271 13.10219745 -7 7 C-7.495 5.515 -7.495 5.515 -8 4 C-9.98 4 -11.96 4 -14 4 C-14 3.34 -14 2.68 -14 2 C-9.15758367 0.66416101 -5.06562383 -0.25328119 0 0 Z " fill="#FBB224" transform="translate(40,9)"/>
<path d="M0 0 C2 2 2 2 2 6 C1.37351562 6.04898438 0.74703125 6.09796875 0.1015625 6.1484375 C-0.71570312 6.22320312 -1.53296875 6.29796875 -2.375 6.375 C-3.18710937 6.44460937 -3.99921875 6.51421875 -4.8359375 6.5859375 C-7.20334191 6.82892588 -7.20334191 6.82892588 -9 9 C-8.34 9.66 -7.68 10.32 -7 11 C-5.68 11 -4.36 11 -3 11 C-2.67 9.68 -2.34 8.36 -2 7 C-0.68 7 0.64 7 2 7 C2.35555556 12.33333333 2.35555556 12.33333333 1 14.875 C-2.25313684 16.70488947 -5.31390109 16.18128355 -9 16 C-9.268125 15.360625 -9.53625 14.72125 -9.8125 14.0625 C-10.88667752 11.66868314 -10.88667752 11.66868314 -14 11 C-14.60044272 4.75539568 -14.60044272 4.75539568 -12.0625 1.5625 C-8.04801756 -0.48570533 -4.44107703 -0.75035879 0 0 Z " fill="#FBB224" transform="translate(47,29)"/>
<path d="M0 0 C4.29 0 8.58 0 13 0 C13.25 6.625 13.25 6.625 11 10 C8.3984375 10.29296875 8.3984375 10.29296875 5.375 10.1875 C3.87066406 10.14689453 3.87066406 10.14689453 2.3359375 10.10546875 C1.56507812 10.07066406 0.79421875 10.03585938 0 10 C0 6.7 0 3.4 0 0 Z " fill="#FBB224" transform="translate(1,13)"/>
<path d="M0 0 C3.96 0 7.92 0 12 0 C12 1.32 12 2.64 12 4 C8.04 4 4.08 4 0 4 C0 2.68 0 1.36 0 0 Z " fill="#FAB224" transform="translate(13,21)"/>
<path d="M0 0 C1.32 0 2.64 0 4 0 C4 1.32 4 2.64 4 4 C2.68 4 1.36 4 0 4 C0 2.68 0 1.36 0 0 Z " fill="#FBB325" transform="translate(40,36)"/>
<path d="M0 0 C1.32 0.33 2.64 0.66 4 1 C4 1.66 4 2.32 4 3 C2.68 3 1.36 3 0 3 C0 2.01 0 1.02 0 0 Z " fill="#FAB224" transform="translate(11,37)"/>
</svg>
